<mxfile host="app.diagrams.net" modified="2021-04-18T07:59:14.741Z" agent="5.0 (Windows NT 10.0; Win64; x64) AppleWebKit/537.36 (KHTML, like Gecko) Chrome/89.0.4389.128 Safari/537.36" etag="E_ab4ffR-6abjMflYVcZ" version="14.6.0" type="github">
  <diagram id="JyXFkxJpvlsZSmCbFzmE" name="Page-1">
    <mxGraphModel dx="1570" dy="1177" grid="0" gridSize="10" guides="1" tooltips="1" connect="1" arrows="1" fold="1" page="0" pageScale="1" pageWidth="827" pageHeight="1169" math="0" shadow="0">
      <root>
        <mxCell id="0" />
        <mxCell id="1" parent="0" />
        <mxCell id="v6VdRj_mDwXjlwreCs0m-6" value="" style="edgeStyle=orthogonalEdgeStyle;rounded=0;orthogonalLoop=1;jettySize=auto;html=1;fontSize=20;fontFamily=Helvetica;" edge="1" parent="1" source="v6VdRj_mDwXjlwreCs0m-1" target="v6VdRj_mDwXjlwreCs0m-2">
          <mxGeometry relative="1" as="geometry" />
        </mxCell>
        <mxCell id="v6VdRj_mDwXjlwreCs0m-1" value="开始" style="strokeWidth=2;html=1;shape=mxgraph.flowchart.terminator;whiteSpace=wrap;fontSize=20;fontFamily=Helvetica;" vertex="1" parent="1">
          <mxGeometry x="1337" y="359" width="100" height="60" as="geometry" />
        </mxCell>
        <mxCell id="v6VdRj_mDwXjlwreCs0m-7" value="" style="edgeStyle=orthogonalEdgeStyle;rounded=0;orthogonalLoop=1;jettySize=auto;html=1;fontSize=20;fontFamily=Helvetica;" edge="1" parent="1" source="v6VdRj_mDwXjlwreCs0m-2" target="v6VdRj_mDwXjlwreCs0m-3">
          <mxGeometry relative="1" as="geometry" />
        </mxCell>
        <mxCell id="v6VdRj_mDwXjlwreCs0m-2" value="&lt;div style=&quot;font-size: 20px; line-height: 19px;&quot;&gt;向SYSREPO数据库建立subscriber的session连接&lt;/div&gt;" style="rounded=0;whiteSpace=wrap;html=1;fontSize=20;fontFamily=Helvetica;" vertex="1" parent="1">
          <mxGeometry x="1278.25" y="455" width="217.5" height="68" as="geometry" />
        </mxCell>
        <mxCell id="v6VdRj_mDwXjlwreCs0m-5" value="N" style="edgeStyle=orthogonalEdgeStyle;rounded=0;orthogonalLoop=1;jettySize=auto;html=1;fontSize=20;fontFamily=Helvetica;" edge="1" parent="1" source="v6VdRj_mDwXjlwreCs0m-3" target="v6VdRj_mDwXjlwreCs0m-4">
          <mxGeometry relative="1" as="geometry" />
        </mxCell>
        <mxCell id="v6VdRj_mDwXjlwreCs0m-15" value="Y" style="edgeStyle=orthogonalEdgeStyle;rounded=0;orthogonalLoop=1;jettySize=auto;html=1;fontSize=20;fontFamily=Helvetica;" edge="1" parent="1" source="v6VdRj_mDwXjlwreCs0m-3" target="v6VdRj_mDwXjlwreCs0m-8">
          <mxGeometry x="-0.5326" relative="1" as="geometry">
            <mxPoint as="offset" />
          </mxGeometry>
        </mxCell>
        <mxCell id="v6VdRj_mDwXjlwreCs0m-3" value="session建立成功" style="rhombus;whiteSpace=wrap;html=1;fontSize=20;fontFamily=Helvetica;" vertex="1" parent="1">
          <mxGeometry x="1275" y="551" width="224" height="101" as="geometry" />
        </mxCell>
        <mxCell id="v6VdRj_mDwXjlwreCs0m-4" value="清空&lt;span&gt;交换机占用资源并退出&lt;/span&gt;" style="rounded=0;whiteSpace=wrap;html=1;fontSize=20;fontFamily=Helvetica;" vertex="1" parent="1">
          <mxGeometry x="1010" y="567.5" width="217.5" height="68" as="geometry" />
        </mxCell>
        <mxCell id="v6VdRj_mDwXjlwreCs0m-16" value="" style="edgeStyle=orthogonalEdgeStyle;rounded=0;orthogonalLoop=1;jettySize=auto;html=1;fontSize=20;fontFamily=Helvetica;" edge="1" parent="1" source="v6VdRj_mDwXjlwreCs0m-8" target="v6VdRj_mDwXjlwreCs0m-11">
          <mxGeometry relative="1" as="geometry" />
        </mxCell>
        <mxCell id="v6VdRj_mDwXjlwreCs0m-8" value="&lt;div style=&quot;font-size: 20px; line-height: 19px;&quot;&gt;&lt;div style=&quot;line-height: 19px; font-size: 20px;&quot;&gt;获取订阅的YANG模型列表module_list&lt;/div&gt;&lt;/div&gt;" style="rounded=0;whiteSpace=wrap;html=1;fontSize=20;fontFamily=Helvetica;" vertex="1" parent="1">
          <mxGeometry x="1278.25" y="699" width="217.5" height="68" as="geometry" />
        </mxCell>
        <mxCell id="v6VdRj_mDwXjlwreCs0m-17" value="" style="edgeStyle=orthogonalEdgeStyle;rounded=0;orthogonalLoop=1;jettySize=auto;html=1;fontSize=20;fontFamily=Helvetica;" edge="1" parent="1" source="v6VdRj_mDwXjlwreCs0m-11" target="v6VdRj_mDwXjlwreCs0m-13">
          <mxGeometry relative="1" as="geometry" />
        </mxCell>
        <mxCell id="v6VdRj_mDwXjlwreCs0m-11" value="&lt;div style=&quot;font-size: 19px; line-height: 19px;&quot;&gt;&lt;div style=&quot;line-height: 19px;&quot;&gt;&lt;span style=&quot;&quot;&gt;遍历&lt;/span&gt;&lt;span&gt;module_list，&lt;/span&gt;&lt;span style=&quot;&quot;&gt;通过&lt;/span&gt;&lt;span lang=&quot;EN-US&quot; style=&quot;&quot;&gt;sr_module_change_subscribe&lt;/span&gt;&lt;/div&gt;&lt;div style=&quot;line-height: 19px;&quot;&gt;&lt;span lang=&quot;EN-US&quot; style=&quot;&quot;&gt;方法订阅&amp;nbsp;&lt;/span&gt;&lt;span&gt;module_list&lt;/span&gt;&lt;/div&gt;&lt;div style=&quot;line-height: 19px;&quot;&gt;&lt;span&gt;中的&lt;/span&gt;&lt;span style=&quot;&quot;&gt;YANG模型&lt;/span&gt;&lt;/div&gt;&lt;/div&gt;" style="rounded=0;whiteSpace=wrap;html=1;fontSize=20;fontFamily=Helvetica;" vertex="1" parent="1">
          <mxGeometry x="1255" y="807" width="264" height="108.5" as="geometry" />
        </mxCell>
        <mxCell id="v6VdRj_mDwXjlwreCs0m-18" value="Y" style="edgeStyle=orthogonalEdgeStyle;rounded=0;orthogonalLoop=1;jettySize=auto;html=1;fontSize=20;fontFamily=Helvetica;" edge="1" parent="1" source="v6VdRj_mDwXjlwreCs0m-13" target="v6VdRj_mDwXjlwreCs0m-14">
          <mxGeometry x="-0.3953" relative="1" as="geometry">
            <mxPoint as="offset" />
          </mxGeometry>
        </mxCell>
        <mxCell id="v6VdRj_mDwXjlwreCs0m-22" value="N" style="edgeStyle=orthogonalEdgeStyle;rounded=0;orthogonalLoop=1;jettySize=auto;html=1;entryX=0.5;entryY=1;entryDx=0;entryDy=0;fontSize=20;fontFamily=Helvetica;" edge="1" parent="1" source="v6VdRj_mDwXjlwreCs0m-13" target="v6VdRj_mDwXjlwreCs0m-4">
          <mxGeometry x="-0.9335" relative="1" as="geometry">
            <mxPoint x="1634.25" y="960.5" as="targetPoint" />
            <mxPoint as="offset" />
          </mxGeometry>
        </mxCell>
        <mxCell id="v6VdRj_mDwXjlwreCs0m-13" value="&lt;font style=&quot;font-size: 19px&quot;&gt;返回值为&lt;br&gt;SR_ERR_OK，代表&lt;br&gt;订阅成功&lt;/font&gt;" style="rhombus;whiteSpace=wrap;html=1;fontSize=20;fontFamily=Helvetica;" vertex="1" parent="1">
          <mxGeometry x="1275" y="977.5" width="224" height="101" as="geometry" />
        </mxCell>
        <mxCell id="v6VdRj_mDwXjlwreCs0m-20" value="N" style="edgeStyle=orthogonalEdgeStyle;rounded=0;orthogonalLoop=1;jettySize=auto;html=1;entryX=0;entryY=0.5;entryDx=0;entryDy=0;fontSize=20;exitX=0;exitY=0.5;exitDx=0;exitDy=0;endArrow=classic;endFill=1;fontFamily=Helvetica;" edge="1" parent="1" source="v6VdRj_mDwXjlwreCs0m-14" target="v6VdRj_mDwXjlwreCs0m-11">
          <mxGeometry x="-0.922" relative="1" as="geometry">
            <mxPoint x="1238" y="1174" as="sourcePoint" />
            <mxPoint x="1146.25" y="1104.5" as="targetPoint" />
            <Array as="points">
              <mxPoint x="1194" y="1181" />
              <mxPoint x="1194" y="861" />
            </Array>
            <mxPoint as="offset" />
          </mxGeometry>
        </mxCell>
        <mxCell id="v6VdRj_mDwXjlwreCs0m-24" value="Y" style="edgeStyle=orthogonalEdgeStyle;rounded=0;orthogonalLoop=1;jettySize=auto;html=1;fontSize=20;endArrow=classic;endFill=1;entryX=0;entryY=0.5;entryDx=0;entryDy=0;fontFamily=Helvetica;" edge="1" parent="1" source="v6VdRj_mDwXjlwreCs0m-14" target="v6VdRj_mDwXjlwreCs0m-23">
          <mxGeometry x="-0.9729" relative="1" as="geometry">
            <mxPoint x="1576" y="474.5" as="targetPoint" />
            <Array as="points">
              <mxPoint x="1565" y="1181" />
              <mxPoint x="1565" y="492" />
              <mxPoint x="1599" y="492" />
            </Array>
            <mxPoint as="offset" />
          </mxGeometry>
        </mxCell>
        <mxCell id="v6VdRj_mDwXjlwreCs0m-14" value="&lt;span style=&quot;font-size: 20px&quot;&gt;module_list列表&lt;br&gt;订阅完成&lt;/span&gt;" style="rhombus;whiteSpace=wrap;html=1;fontSize=20;fontFamily=Helvetica;" vertex="1" parent="1">
          <mxGeometry x="1275" y="1130.5" width="224" height="101" as="geometry" />
        </mxCell>
        <mxCell id="v6VdRj_mDwXjlwreCs0m-23" value="&lt;font style=&quot;font-size: 17px&quot;&gt;module_list列表中的&lt;br&gt;YANG模型节点参数发生变化，&lt;br&gt;并接收到了来自SYSREPO&lt;br&gt;数据库的通知事件&lt;/font&gt;" style="rhombus;whiteSpace=wrap;html=1;fontSize=20;fontFamily=Helvetica;" vertex="1" parent="1">
          <mxGeometry x="1599" y="412" width="274" height="155.5" as="geometry" />
        </mxCell>
        <mxCell id="v6VdRj_mDwXjlwreCs0m-32" value="Y" style="edgeStyle=orthogonalEdgeStyle;rounded=0;orthogonalLoop=1;jettySize=auto;html=1;fontSize=20;endArrow=classic;endFill=1;fontFamily=Helvetica;" edge="1" parent="1" source="v6VdRj_mDwXjlwreCs0m-25" target="v6VdRj_mDwXjlwreCs0m-30">
          <mxGeometry relative="1" as="geometry" />
        </mxCell>
        <mxCell id="v6VdRj_mDwXjlwreCs0m-59" value="N" style="edgeStyle=orthogonalEdgeStyle;rounded=0;orthogonalLoop=1;jettySize=auto;html=1;fontSize=20;endArrow=classic;endFill=1;entryX=1;entryY=0.5;entryDx=0;entryDy=0;fontFamily=Helvetica;" edge="1" parent="1" source="v6VdRj_mDwXjlwreCs0m-25" target="v6VdRj_mDwXjlwreCs0m-23">
          <mxGeometry x="-0.8691" relative="1" as="geometry">
            <mxPoint x="1799" y="362" as="targetPoint" />
            <Array as="points">
              <mxPoint x="1983" y="694" />
              <mxPoint x="1983" y="492" />
              <mxPoint x="1873" y="492" />
            </Array>
            <mxPoint as="offset" />
          </mxGeometry>
        </mxCell>
        <mxCell id="v6VdRj_mDwXjlwreCs0m-25" value="&lt;span style=&quot;font-size: 20px&quot;&gt;事件类型是否为&lt;/span&gt;&lt;span lang=&quot;EN-US&quot; style=&quot;font-size: 20px&quot;&gt;SR_EV_VERIFY&lt;br&gt;&lt;/span&gt;&lt;span style=&quot;font-size: 20px&quot;&gt;或&lt;/span&gt;&lt;span lang=&quot;EN-US&quot; style=&quot;font-size: 20px&quot;&gt;SR_EV_APPLY&lt;/span&gt;" style="rhombus;whiteSpace=wrap;html=1;fontSize=20;fontFamily=Helvetica;" vertex="1" parent="1">
          <mxGeometry x="1592" y="626" width="288" height="135" as="geometry" />
        </mxCell>
        <mxCell id="v6VdRj_mDwXjlwreCs0m-65" value="" style="edgeStyle=orthogonalEdgeStyle;rounded=0;orthogonalLoop=1;jettySize=auto;html=1;fontSize=20;endArrow=classic;endFill=1;fontFamily=Helvetica;" edge="1" parent="1" source="v6VdRj_mDwXjlwreCs0m-30" target="v6VdRj_mDwXjlwreCs0m-64">
          <mxGeometry relative="1" as="geometry" />
        </mxCell>
        <mxCell id="v6VdRj_mDwXjlwreCs0m-30" value="&lt;div style=&quot;font-size: 19px ; line-height: 19px&quot;&gt;&lt;div style=&quot;line-height: 19px&quot;&gt;&lt;span&gt;通过sr_get_changes_iter迭代器遍历SYSREPO数据库&lt;/span&gt;&lt;/div&gt;&lt;div style=&quot;line-height: 19px&quot;&gt;&lt;span&gt;中指定module&lt;/span&gt;&lt;span&gt;节点参数&lt;/span&gt;&lt;span&gt;的&lt;/span&gt;&lt;span&gt;变化&lt;/span&gt;&lt;/div&gt;&lt;/div&gt;" style="rounded=0;whiteSpace=wrap;html=1;fontSize=20;fontFamily=Helvetica;" vertex="1" parent="1">
          <mxGeometry x="1611.5" y="813.5" width="249" height="102" as="geometry" />
        </mxCell>
        <mxCell id="v6VdRj_mDwXjlwreCs0m-123" value="Y" style="edgeStyle=orthogonalEdgeStyle;rounded=0;orthogonalLoop=1;jettySize=auto;html=1;fontSize=20;endArrow=classic;endFill=1;fontFamily=Helvetica;" edge="1" parent="1" source="v6VdRj_mDwXjlwreCs0m-40" target="v6VdRj_mDwXjlwreCs0m-122">
          <mxGeometry x="-0.5009" relative="1" as="geometry">
            <mxPoint as="offset" />
          </mxGeometry>
        </mxCell>
        <mxCell id="v6VdRj_mDwXjlwreCs0m-132" value="" style="edgeStyle=orthogonalEdgeStyle;rounded=0;orthogonalLoop=1;jettySize=auto;html=1;fontFamily=Helvetica;fontSize=20;fontColor=#000000;endArrow=classic;endFill=1;entryX=1;entryY=0.5;entryDx=0;entryDy=0;exitX=1;exitY=0.5;exitDx=0;exitDy=0;" edge="1" parent="1" source="v6VdRj_mDwXjlwreCs0m-122" target="v6VdRj_mDwXjlwreCs0m-64">
          <mxGeometry relative="1" as="geometry">
            <mxPoint x="1980" y="1509.4999999999995" as="targetPoint" />
            <Array as="points">
              <mxPoint x="1964" y="1639" />
              <mxPoint x="1964" y="1010" />
            </Array>
          </mxGeometry>
        </mxCell>
        <mxCell id="v6VdRj_mDwXjlwreCs0m-40" value="&lt;span style=&quot;font-size: 20px;&quot;&gt;节点的新值和旧值相等&lt;/span&gt;" style="rhombus;whiteSpace=wrap;html=1;fontSize=20;fontFamily=Helvetica;" vertex="1" parent="1">
          <mxGeometry x="1624" y="1440" width="224" height="101" as="geometry" />
        </mxCell>
        <mxCell id="v6VdRj_mDwXjlwreCs0m-55" value="Y" style="edgeStyle=orthogonalEdgeStyle;rounded=0;orthogonalLoop=1;jettySize=auto;html=1;fontSize=20;endArrow=classic;endFill=1;exitX=0.5;exitY=1;exitDx=0;exitDy=0;fontFamily=Helvetica;" edge="1" parent="1" source="v6VdRj_mDwXjlwreCs0m-23" target="v6VdRj_mDwXjlwreCs0m-25">
          <mxGeometry relative="1" as="geometry">
            <mxPoint x="1677" y="650" as="sourcePoint" />
          </mxGeometry>
        </mxCell>
        <mxCell id="v6VdRj_mDwXjlwreCs0m-68" value="N" style="edgeStyle=orthogonalEdgeStyle;rounded=0;orthogonalLoop=1;jettySize=auto;html=1;fontSize=20;endArrow=classic;endFill=1;fontFamily=Helvetica;" edge="1" parent="1" source="v6VdRj_mDwXjlwreCs0m-64" target="v6VdRj_mDwXjlwreCs0m-67">
          <mxGeometry relative="1" as="geometry" />
        </mxCell>
        <mxCell id="v6VdRj_mDwXjlwreCs0m-130" value="Y" style="edgeStyle=none;rounded=0;orthogonalLoop=1;jettySize=auto;html=1;fontFamily=Helvetica;fontSize=20;fontColor=#000000;endArrow=classic;endFill=1;" edge="1" parent="1" source="v6VdRj_mDwXjlwreCs0m-64">
          <mxGeometry relative="1" as="geometry">
            <mxPoint x="1564" y="1010" as="targetPoint" />
          </mxGeometry>
        </mxCell>
        <mxCell id="v6VdRj_mDwXjlwreCs0m-64" value="&lt;span style=&quot;font-size: 20px;&quot;&gt;参数变化遍历结束&lt;/span&gt;" style="rhombus;whiteSpace=wrap;html=1;fontSize=20;fontFamily=Helvetica;" vertex="1" parent="1">
          <mxGeometry x="1624" y="959" width="224" height="101" as="geometry" />
        </mxCell>
        <mxCell id="v6VdRj_mDwXjlwreCs0m-67" value="&lt;div style=&quot;font-size: 20px; line-height: 19px;&quot;&gt;&lt;div style=&quot;line-height: 19px; font-size: 20px;&quot;&gt;&lt;span style=&quot;font-size: 20px;&quot;&gt;通过&lt;/span&gt;&lt;span style=&quot;font-size: 20px;&quot;&gt;sr_get_change_next&lt;/span&gt;&lt;span style=&quot;font-size: 20px;&quot;&gt;获取迭代器中的&lt;/span&gt;&lt;span style=&quot;font-size: 20px;&quot;&gt;节点参数&lt;/span&gt;&lt;span style=&quot;font-size: 20px;&quot;&gt;的&lt;/span&gt;&lt;span style=&quot;font-size: 20px;&quot;&gt;变化&lt;/span&gt;&lt;br style=&quot;font-size: 20px;&quot;&gt;&lt;/div&gt;&lt;/div&gt;" style="rounded=0;whiteSpace=wrap;html=1;fontSize=20;fontFamily=Helvetica;" vertex="1" parent="1">
          <mxGeometry x="1617.5" y="1140" width="237" height="82" as="geometry" />
        </mxCell>
        <mxCell id="v6VdRj_mDwXjlwreCs0m-101" value="" style="edgeStyle=orthogonalEdgeStyle;rounded=0;orthogonalLoop=1;jettySize=auto;html=1;fontSize=20;endArrow=classic;endFill=1;entryX=0.5;entryY=0;entryDx=0;entryDy=0;fontFamily=Helvetica;" edge="1" parent="1" source="v6VdRj_mDwXjlwreCs0m-86" target="v6VdRj_mDwXjlwreCs0m-103">
          <mxGeometry relative="1" as="geometry">
            <mxPoint x="1171.75" y="1607.75" as="targetPoint" />
          </mxGeometry>
        </mxCell>
        <mxCell id="v6VdRj_mDwXjlwreCs0m-86" value="&lt;div style=&quot;font-size: 20px ; line-height: 19px&quot;&gt;&lt;div style=&quot;line-height: 19px ; font-size: 20px&quot;&gt;&lt;span style=&quot;font-size: 20px&quot;&gt;获取发生变化节点的XPATH，通过XPATH能够&lt;/span&gt;&lt;/div&gt;&lt;div style=&quot;line-height: 19px ; font-size: 20px&quot;&gt;&lt;span style=&quot;font-size: 20px&quot;&gt;确定哪一个节点发生了变化&lt;/span&gt;&lt;br style=&quot;font-size: 20px&quot;&gt;&lt;/div&gt;&lt;/div&gt;" style="rounded=0;whiteSpace=wrap;html=1;fontSize=20;fontFamily=Helvetica;" vertex="1" parent="1">
          <mxGeometry x="1299.5" y="1454" width="240" height="92" as="geometry" />
        </mxCell>
        <mxCell id="v6VdRj_mDwXjlwreCs0m-139" value="Y" style="edgeStyle=orthogonalEdgeStyle;rounded=0;orthogonalLoop=1;jettySize=auto;html=1;fontFamily=Helvetica;fontSize=20;fontColor=#000000;endArrow=classic;endFill=1;entryX=0;entryY=0.5;entryDx=0;entryDy=0;" edge="1" parent="1" source="v6VdRj_mDwXjlwreCs0m-89" target="v6VdRj_mDwXjlwreCs0m-86">
          <mxGeometry x="-0.8824" relative="1" as="geometry">
            <mxPoint x="1085" y="1506.25" as="targetPoint" />
            <Array as="points">
              <mxPoint x="1105" y="1498" />
            </Array>
            <mxPoint as="offset" />
          </mxGeometry>
        </mxCell>
        <mxCell id="v6VdRj_mDwXjlwreCs0m-150" value="N" style="edgeStyle=orthogonalEdgeStyle;rounded=0;orthogonalLoop=1;jettySize=auto;html=1;fontFamily=Helvetica;fontSize=20;fontColor=#000000;endArrow=classic;endFill=1;entryX=0;entryY=0.5;entryDx=0;entryDy=0;" edge="1" parent="1" source="v6VdRj_mDwXjlwreCs0m-89" target="v6VdRj_mDwXjlwreCs0m-146">
          <mxGeometry x="-0.9384" relative="1" as="geometry">
            <mxPoint x="821" y="1319.0000000000005" as="targetPoint" />
            <Array as="points">
              <mxPoint x="910" y="1319" />
              <mxPoint x="910" y="1632" />
            </Array>
            <mxPoint as="offset" />
          </mxGeometry>
        </mxCell>
        <mxCell id="v6VdRj_mDwXjlwreCs0m-89" value="&lt;span style=&quot;font-size: 20px&quot;&gt;对YANG模型节&lt;br&gt;点的操作类型为节&lt;br&gt;点值的删除&lt;/span&gt;" style="rhombus;whiteSpace=wrap;html=1;fontSize=20;fontFamily=Helvetica;" vertex="1" parent="1">
          <mxGeometry x="973" y="1252.5" width="264" height="133" as="geometry" />
        </mxCell>
        <mxCell id="v6VdRj_mDwXjlwreCs0m-94" value="Y" style="edgeStyle=orthogonalEdgeStyle;rounded=0;orthogonalLoop=1;jettySize=auto;html=1;fontSize=20;endArrow=classic;endFill=1;fontFamily=Helvetica;" edge="1" parent="1" source="v6VdRj_mDwXjlwreCs0m-91" target="v6VdRj_mDwXjlwreCs0m-40">
          <mxGeometry x="-0.3107" relative="1" as="geometry">
            <mxPoint as="offset" />
          </mxGeometry>
        </mxCell>
        <mxCell id="v6VdRj_mDwXjlwreCs0m-136" value="N" style="edgeStyle=orthogonalEdgeStyle;rounded=0;orthogonalLoop=1;jettySize=auto;html=1;fontFamily=Helvetica;fontSize=20;fontColor=#000000;endArrow=classic;endFill=1;" edge="1" parent="1" source="v6VdRj_mDwXjlwreCs0m-91" target="v6VdRj_mDwXjlwreCs0m-92">
          <mxGeometry x="-0.6373" relative="1" as="geometry">
            <mxPoint x="-1" as="offset" />
          </mxGeometry>
        </mxCell>
        <mxCell id="v6VdRj_mDwXjlwreCs0m-91" value="&lt;span style=&quot;font-size: 20px&quot;&gt;对YANG模型节&lt;br&gt;点的操作类型为节点&lt;br&gt;值的更改&lt;/span&gt;" style="rhombus;whiteSpace=wrap;html=1;fontSize=20;fontFamily=Helvetica;" vertex="1" parent="1">
          <mxGeometry x="1617.5" y="1254" width="237" height="131.5" as="geometry" />
        </mxCell>
        <mxCell id="v6VdRj_mDwXjlwreCs0m-96" value="Y" style="edgeStyle=orthogonalEdgeStyle;rounded=0;orthogonalLoop=1;jettySize=auto;html=1;fontSize=20;endArrow=classic;endFill=1;fontFamily=Helvetica;" edge="1" parent="1" source="v6VdRj_mDwXjlwreCs0m-92" target="v6VdRj_mDwXjlwreCs0m-86">
          <mxGeometry x="-0.4377" y="1" relative="1" as="geometry">
            <mxPoint as="offset" />
          </mxGeometry>
        </mxCell>
        <mxCell id="v6VdRj_mDwXjlwreCs0m-137" value="N" style="edgeStyle=orthogonalEdgeStyle;rounded=0;orthogonalLoop=1;jettySize=auto;html=1;fontFamily=Helvetica;fontSize=20;fontColor=#000000;endArrow=classic;endFill=1;" edge="1" parent="1" source="v6VdRj_mDwXjlwreCs0m-92" target="v6VdRj_mDwXjlwreCs0m-89">
          <mxGeometry x="-0.6596" y="4" relative="1" as="geometry">
            <mxPoint x="1" as="offset" />
          </mxGeometry>
        </mxCell>
        <mxCell id="v6VdRj_mDwXjlwreCs0m-92" value="&lt;span style=&quot;font-size: 20px&quot;&gt;对YANG模型节&lt;br&gt;点的操作类型为创&lt;br&gt;建新的节点&lt;/span&gt;" style="rhombus;whiteSpace=wrap;html=1;fontSize=20;fontFamily=Helvetica;" vertex="1" parent="1">
          <mxGeometry x="1307.5" y="1256.75" width="224" height="126" as="geometry" />
        </mxCell>
        <mxCell id="v6VdRj_mDwXjlwreCs0m-111" value="" style="edgeStyle=orthogonalEdgeStyle;rounded=0;orthogonalLoop=1;jettySize=auto;html=1;fontSize=20;endArrow=classic;endFill=1;fontFamily=Helvetica;" edge="1" parent="1" source="v6VdRj_mDwXjlwreCs0m-102" target="v6VdRj_mDwXjlwreCs0m-106">
          <mxGeometry relative="1" as="geometry" />
        </mxCell>
        <mxCell id="v6VdRj_mDwXjlwreCs0m-102" value="&lt;div style=&quot;font-size: 20px; line-height: 19px;&quot;&gt;&lt;div style=&quot;line-height: 19px; font-size: 20px;&quot;&gt;&lt;div style=&quot;font-size: 20px; line-height: 19px;&quot;&gt;获取节点名称与节点参数修改API的映射哈希表fn_map&lt;/div&gt;&lt;/div&gt;&lt;/div&gt;" style="rounded=0;whiteSpace=wrap;html=1;fontSize=20;fontFamily=Helvetica;" vertex="1" parent="1">
          <mxGeometry x="1296" y="1730" width="247" height="89.5" as="geometry" />
        </mxCell>
        <mxCell id="v6VdRj_mDwXjlwreCs0m-105" value="" style="edgeStyle=orthogonalEdgeStyle;rounded=0;orthogonalLoop=1;jettySize=auto;html=1;fontSize=20;endArrow=classic;endFill=1;fontFamily=Helvetica;" edge="1" parent="1" source="v6VdRj_mDwXjlwreCs0m-103" target="v6VdRj_mDwXjlwreCs0m-102">
          <mxGeometry relative="1" as="geometry" />
        </mxCell>
        <mxCell id="v6VdRj_mDwXjlwreCs0m-103" value="&lt;div style=&quot;font-size: 20px; line-height: 19px;&quot;&gt;&lt;div style=&quot;line-height: 19px; font-size: 20px;&quot;&gt;&lt;span style=&quot;font-size: 20px;&quot;&gt;通过正则表达式对节点进行匹配，获取XPATH中的节点名称&lt;/span&gt;&lt;br style=&quot;font-size: 20px;&quot;&gt;&lt;/div&gt;&lt;/div&gt;" style="rounded=0;whiteSpace=wrap;html=1;fontSize=20;fontFamily=Helvetica;" vertex="1" parent="1">
          <mxGeometry x="1299.5" y="1590" width="242" height="84" as="geometry" />
        </mxCell>
        <mxCell id="v6VdRj_mDwXjlwreCs0m-108" value="Y" style="edgeStyle=orthogonalEdgeStyle;rounded=0;orthogonalLoop=1;jettySize=auto;html=1;fontSize=20;endArrow=classic;endFill=1;entryX=1;entryY=0.5;entryDx=0;entryDy=0;fontFamily=Helvetica;" edge="1" parent="1" source="v6VdRj_mDwXjlwreCs0m-106" target="v6VdRj_mDwXjlwreCs0m-109">
          <mxGeometry x="-0.3542" relative="1" as="geometry">
            <mxPoint x="932.75" y="1861.25" as="targetPoint" />
            <mxPoint as="offset" />
          </mxGeometry>
        </mxCell>
        <mxCell id="v6VdRj_mDwXjlwreCs0m-113" value="Y" style="edgeStyle=orthogonalEdgeStyle;rounded=0;orthogonalLoop=1;jettySize=auto;html=1;fontSize=20;endArrow=classic;endFill=1;fontFamily=Helvetica;" edge="1" parent="1" source="v6VdRj_mDwXjlwreCs0m-106" target="v6VdRj_mDwXjlwreCs0m-112">
          <mxGeometry relative="1" as="geometry" />
        </mxCell>
        <mxCell id="v6VdRj_mDwXjlwreCs0m-106" value="&lt;span style=&quot;font-size: 20px&quot;&gt;哈希表fn_map中&lt;br&gt;没有对XPATH中节点&lt;br&gt;的更改支持&lt;/span&gt;" style="rhombus;whiteSpace=wrap;html=1;fontSize=20;fontFamily=Helvetica;" vertex="1" parent="1">
          <mxGeometry x="1296" y="1875.5" width="245" height="123" as="geometry" />
        </mxCell>
        <mxCell id="v6VdRj_mDwXjlwreCs0m-109" value="&lt;div style=&quot;font-size: 20px; line-height: 19px;&quot;&gt;&lt;div style=&quot;line-height: 19px; font-size: 20px;&quot;&gt;&lt;div style=&quot;font-size: 20px; line-height: 19px;&quot;&gt;&lt;div style=&quot;line-height: 19px; font-size: 20px;&quot;&gt;&lt;span style=&quot;font-size: 20px;&quot;&gt;返回异常代码SR_ERR_UNSUPPORTED&lt;/span&gt;&lt;/div&gt;&lt;/div&gt;&lt;/div&gt;&lt;/div&gt;" style="rounded=0;whiteSpace=wrap;html=1;fontSize=20;fontFamily=Helvetica;" vertex="1" parent="1">
          <mxGeometry x="952" y="1893" width="249.25" height="88" as="geometry" />
        </mxCell>
        <mxCell id="v6VdRj_mDwXjlwreCs0m-115" value="N" style="edgeStyle=orthogonalEdgeStyle;rounded=0;orthogonalLoop=1;jettySize=auto;html=1;fontSize=20;endArrow=classic;endFill=1;fontFamily=Helvetica;" edge="1" parent="1" source="v6VdRj_mDwXjlwreCs0m-112" target="v6VdRj_mDwXjlwreCs0m-114">
          <mxGeometry x="-0.3786" relative="1" as="geometry">
            <mxPoint as="offset" />
          </mxGeometry>
        </mxCell>
        <mxCell id="v6VdRj_mDwXjlwreCs0m-119" value="Y" style="edgeStyle=orthogonalEdgeStyle;rounded=0;orthogonalLoop=1;jettySize=auto;html=1;fontSize=20;endArrow=classic;endFill=1;fontFamily=Helvetica;" edge="1" parent="1" source="v6VdRj_mDwXjlwreCs0m-112" target="v6VdRj_mDwXjlwreCs0m-118">
          <mxGeometry x="-0.4545" relative="1" as="geometry">
            <mxPoint as="offset" />
          </mxGeometry>
        </mxCell>
        <mxCell id="v6VdRj_mDwXjlwreCs0m-112" value="&lt;font style=&quot;font-size: 20px;&quot;&gt;&lt;span style=&quot;font-size: 20px;&quot;&gt;通过device-id判断参数的更改是对本机的更改&lt;/span&gt;&lt;/font&gt;" style="rhombus;whiteSpace=wrap;html=1;fontSize=20;fontFamily=Helvetica;" vertex="1" parent="1">
          <mxGeometry x="1300.5" y="2043" width="238" height="112" as="geometry" />
        </mxCell>
        <mxCell id="v6VdRj_mDwXjlwreCs0m-114" value="&lt;div style=&quot;font-size: 20px; line-height: 19px;&quot;&gt;&lt;span style=&quot;font-size: 20px;&quot;&gt;返回代码SR_ERR_OK&lt;/span&gt;&lt;/div&gt;" style="whiteSpace=wrap;html=1;fontSize=20;fontFamily=Helvetica;" vertex="1" parent="1">
          <mxGeometry x="946.9999999999999" y="2058" width="241.07" height="82" as="geometry" />
        </mxCell>
        <mxCell id="v6VdRj_mDwXjlwreCs0m-135" value="" style="edgeStyle=orthogonalEdgeStyle;rounded=0;orthogonalLoop=1;jettySize=auto;html=1;fontFamily=Helvetica;fontSize=20;fontColor=#000000;endArrow=none;endFill=0;" edge="1" parent="1" source="v6VdRj_mDwXjlwreCs0m-118">
          <mxGeometry relative="1" as="geometry">
            <mxPoint x="1965" y="1639" as="targetPoint" />
          </mxGeometry>
        </mxCell>
        <mxCell id="v6VdRj_mDwXjlwreCs0m-118" value="&lt;div style=&quot;font-size: 20px; line-height: 19px;&quot;&gt;&lt;div style=&quot;line-height: 19px; font-size: 20px;&quot;&gt;&lt;div style=&quot;font-size: 20px; line-height: 19px;&quot;&gt;调用节点参数修改API对参数进行修改&lt;br style=&quot;font-size: 20px;&quot;&gt;&lt;/div&gt;&lt;/div&gt;&lt;/div&gt;" style="rounded=0;whiteSpace=wrap;html=1;fontSize=20;fontFamily=Helvetica;" vertex="1" parent="1">
          <mxGeometry x="1619.25" y="1746" width="231.75" height="77" as="geometry" />
        </mxCell>
        <mxCell id="v6VdRj_mDwXjlwreCs0m-122" value="&lt;div style=&quot;line-height: 19px; font-size: 20px;&quot;&gt;&lt;div style=&quot;line-height: 19px; font-size: 20px;&quot;&gt;&lt;span style=&quot;font-size: 20px;&quot;&gt;跳过该节点的更改，继续遍历其它的节点参数更改&lt;/span&gt;&lt;/div&gt;&lt;/div&gt;" style="rounded=0;whiteSpace=wrap;html=1;fontSize=20;fontFamily=Helvetica;" vertex="1" parent="1">
          <mxGeometry x="1619.25" y="1597" width="233.5" height="83.5" as="geometry" />
        </mxCell>
        <mxCell id="v6VdRj_mDwXjlwreCs0m-128" value="" style="edgeStyle=orthogonalEdgeStyle;rounded=0;orthogonalLoop=1;jettySize=auto;html=1;fontSize=20;endArrow=classic;endFill=1;fontFamily=Helvetica;entryX=0.5;entryY=0;entryDx=0;entryDy=0;exitX=0.5;exitY=1;exitDx=0;exitDy=0;" edge="1" parent="1" source="v6VdRj_mDwXjlwreCs0m-67" target="v6VdRj_mDwXjlwreCs0m-91">
          <mxGeometry x="-0.5972" relative="1" as="geometry">
            <mxPoint x="1669" y="1262" as="sourcePoint" />
            <mxPoint x="1341.8807189542486" y="1434.8235294117649" as="targetPoint" />
            <mxPoint as="offset" />
          </mxGeometry>
        </mxCell>
        <mxCell id="v6VdRj_mDwXjlwreCs0m-133" style="edgeStyle=orthogonalEdgeStyle;rounded=0;orthogonalLoop=1;jettySize=auto;html=1;exitX=0.5;exitY=1;exitDx=0;exitDy=0;fontFamily=Helvetica;fontSize=20;fontColor=#000000;endArrow=classic;endFill=1;" edge="1" parent="1" source="v6VdRj_mDwXjlwreCs0m-91" target="v6VdRj_mDwXjlwreCs0m-91">
          <mxGeometry relative="1" as="geometry" />
        </mxCell>
        <mxCell id="v6VdRj_mDwXjlwreCs0m-146" value="&lt;div style=&quot;line-height: 19px; font-size: 20px;&quot;&gt;&lt;div style=&quot;line-height: 19px; font-size: 20px;&quot;&gt;&lt;span style=&quot;font-size: 20px;&quot;&gt;跳过该节点的更改，继续遍历其它的节点参数更改&lt;/span&gt;&lt;/div&gt;&lt;/div&gt;" style="rounded=0;whiteSpace=wrap;html=1;fontSize=20;fontFamily=Helvetica;" vertex="1" parent="1">
          <mxGeometry x="959.88" y="1590.25" width="233.5" height="83.5" as="geometry" />
        </mxCell>
      </root>
    </mxGraphModel>
  </diagram>
</mxfile>
